<?xml version="1.0" encoding="utf-8"?>
<!-- Generator: Adobe Illustrator 17.0.0, SVG Export Plug-In . SVG Version: 6.00 Build 0)  -->
<!DOCTYPE svg PUBLIC "-//W3C//DTD SVG 1.1//EN" "http://www.w3.org/Graphics/SVG/1.1/DTD/svg11.dtd">
<svg version="1.1" id="Layer_1" xmlns="http://www.w3.org/2000/svg" xmlns:xlink="http://www.w3.org/1999/xlink" x="0px" y="0px"
	 width="56.693px" height="56.693px" viewBox="0 0 56.693 56.693" enable-background="new 0 0 56.693 56.693" xml:space="preserve">
<path fill="#1ac600" d="M51.858,10.72c-0.653-0.149-1.834-0.295-3.616-0.447c-1.827-0.153-2.956-0.168-3.555-0.053
	c-0.606,0.117-1.701,0.672-3.348,1.699c-1.6,1.002-4.05,2.976-7.282,5.866c-3.232,2.896-6.387,6.062-9.377,9.409
	c-2.786,3.118-5.517,6.442-8.129,9.89c-0.979-2.917-1.984-4.97-3.07-6.253c-1.222-1.449-2.331-2.27-3.387-2.511
	c-0.845-0.195-1.934-0.009-3.335,0.567c-1.438,0.59-2.274,1.353-2.482,2.268c-0.157,0.69,0.169,1.687,1.03,3.14
	c1.518,2.563,2.788,5.236,3.777,7.949c0.634,1.692,1.067,2.722,1.324,3.146c0.216,0.356,0.758,0.832,3.051,1.354
	c1.17,0.268,2.133,0.402,2.864,0.402c0.783,0,1.339-0.152,1.69-0.457c0.575-0.479,1.722-1.946,3.506-4.485
	c4.284-6.155,9.232-11.925,14.705-17.153c5.473-5.227,10.323-9.078,14.41-11.442c1.251-0.69,1.489-0.879,1.573-0.945
	c0.267-0.217,0.438-0.479,0.506-0.775C52.815,11.442,52.643,10.901,51.858,10.72z"/>
</svg>
